<?xml version="1.0" encoding="UTF-8" standalone="no"?>
<svg
   xmlns:dc="http://purl.org/dc/elements/1.1/"
   xmlns:cc="http://creativecommons.org/ns#"
   xmlns:rdf="http://www.w3.org/1999/02/22-rdf-syntax-ns#"
   xmlns:svg="http://www.w3.org/2000/svg"
   xmlns="http://www.w3.org/2000/svg"
   xmlns:sodipodi="http://sodipodi.sourceforge.net/DTD/sodipodi-0.dtd"
   xmlns:inkscape="http://www.inkscape.org/namespaces/inkscape"
   width="378"
   height="378"
   viewBox="0 0 100 100"
   version="1.1"
   id="svg8"
   sodipodi:docname="bouncer22.svg"
   inkscape:version="0.92.4 (5da689c313, 2019-01-14)">
  <metadata
     id="metadata14">
    <rdf:RDF>
      <cc:Work
         rdf:about="">
        <dc:format>image/svg+xml</dc:format>
        <dc:type
           rdf:resource="http://purl.org/dc/dcmitype/StillImage" />
        <dc:title></dc:title>
      </cc:Work>
    </rdf:RDF>
  </metadata>
  <defs
     id="defs12">
    <filter
       inkscape:collect="always"
       style="color-interpolation-filters:sRGB"
       id="filter2238"
       x="-0.32480301"
       width="1.649606"
       y="-0.38321621"
       height="1.7664324">
      <feGaussianBlur
         inkscape:collect="always"
         stdDeviation="3.968205"
         id="feGaussianBlur2240" />
    </filter>
  </defs>
  <sodipodi:namedview
     pagecolor="#ffffff"
     bordercolor="#666666"
     borderopacity="1"
     objecttolerance="10"
     gridtolerance="10"
     guidetolerance="10"
     inkscape:pageopacity="0"
     inkscape:pageshadow="2"
     inkscape:window-width="1920"
     inkscape:window-height="1017"
     id="namedview10"
     showgrid="false"
     inkscape:zoom="2.2098628"
     inkscape:cx="90.639305"
     inkscape:cy="203.86887"
     inkscape:window-x="1016"
     inkscape:window-y="-8"
     inkscape:window-maximized="1"
     inkscape:current-layer="svg8"
     showguides="true"
     inkscape:guide-bbox="true" />
  <circle
     id="circle2"
     r="25"
     cy="50"
     cx="50"
     style="fill:#333845;fill-opacity:1" />
  <path
     style="fill:#0e1118;fill-opacity:0.17156863;stroke:none;stroke-width:3.77999997"
     d="m 189,94.5 c -52.19091,0 -94.5,42.30909 -94.5,94.5 0,52.19091 42.30909,94.5 94.5,94.5 52.19091,0 94.5,-42.30909 94.5,-94.5 0,-52.19091 -42.30909,-94.5 -94.5,-94.5 z m 16.28365,10.02741 c 36.86869,7.8e-4 66.75617,29.88914 66.75586,66.75782 3.1e-4,36.86869 -29.88717,66.75704 -66.75586,66.75781 -36.86944,3e-4 -66.75811,-29.88836 -66.75781,-66.75781 -3e-4,-36.86945 29.88837,-66.75812 66.75781,-66.75782 z"
     transform="scale(0.26455026)"
     id="circle4543"
     inkscape:connector-curvature="0"
     sodipodi:nodetypes="sssssccccc" />
  <path
     style="fill:none;stroke:#01f209;stroke-width:3.33280423;stroke-linecap:butt;stroke-linejoin:miter;stroke-miterlimit:4;stroke-dasharray:none;stroke-opacity:1"
     d="m 49.999997,37.663029 c 0,0 -18.736351,13.75585 -13.846716,21.096826 5.024106,7.542861 13.846716,1.39054 13.846716,1.39054 0,0 8.822616,6.152321 13.846722,-1.39054 C 68.736354,51.418879 49.999997,37.663029 49.999997,37.663029 Z"
     id="path817"
     inkscape:connector-curvature="0" />
  <path
     inkscape:connector-curvature="0"
     id="path824"
     d="m 49.999997,37.663029 c 0,0 -18.736351,13.75585 -13.846716,21.096826 5.024106,7.542861 13.846716,1.39054 13.846716,1.39054 0,0 8.822616,6.152321 13.846722,-1.39054 C 68.736354,51.418879 49.999997,37.663029 49.999997,37.663029 Z"
     style="fill:none;stroke:#01f209;stroke-width:6.216402;stroke-linecap:butt;stroke-linejoin:miter;stroke-miterlimit:4;stroke-dasharray:none;stroke-opacity:1;filter:url(#filter2238)" />
  <circle
     cx="50"
     cy="50"
     r="25"
     id="circle4539"
     style="stroke:#01f209;stroke-opacity:1;fill:none;stroke-width:2.61375661;stroke-miterlimit:4;stroke-dasharray:none" />
</svg>
