<?xml version="1.0" encoding="UTF-8" standalone="no"?>
<!-- Created with Inkscape (http://www.inkscape.org/) -->

<svg
   xmlns:dc="http://purl.org/dc/elements/1.1/"
   xmlns:cc="http://creativecommons.org/ns#"
   xmlns:rdf="http://www.w3.org/1999/02/22-rdf-syntax-ns#"
   xmlns:svg="http://www.w3.org/2000/svg"
   xmlns="http://www.w3.org/2000/svg"
   xmlns:sodipodi="http://sodipodi.sourceforge.net/DTD/sodipodi-0.dtd"
   xmlns:inkscape="http://www.inkscape.org/namespaces/inkscape"
   width="100mm"
   height="100mm"
   viewBox="0 0 100 100"
   version="1.1"
   id="svg8"
   inkscape:version="0.92.4 (5da689c313, 2019-01-14)"
   sodipodi:docname="dash.svg">
  <defs
     id="defs2" />
  <sodipodi:namedview
     id="base"
     pagecolor="#ffffff"
     bordercolor="#666666"
     borderopacity="1.0"
     inkscape:pageopacity="0.0"
     inkscape:pageshadow="2"
     inkscape:zoom="1.566131"
     inkscape:cx="83.095368"
     inkscape:cy="209.27038"
     inkscape:document-units="mm"
     inkscape:current-layer="layer1"
     showgrid="false"
     inkscape:window-width="1920"
     inkscape:window-height="1017"
     inkscape:window-x="1016"
     inkscape:window-y="-8"
     inkscape:window-maximized="1" />
  <metadata
     id="metadata5">
    <rdf:RDF>
      <cc:Work
         rdf:about="">
        <dc:format>image/svg+xml</dc:format>
        <dc:type
           rdf:resource="http://purl.org/dc/dcmitype/StillImage" />
        <dc:title></dc:title>
      </cc:Work>
    </rdf:RDF>
  </metadata>
  <g
     inkscape:label="Calque 1"
     inkscape:groupmode="layer"
     id="layer1"
     transform="translate(0,-197)">
    <path
       style="fill:#15a9b8;fill-opacity:1;stroke:none;stroke-width:2.66071439;stroke-linecap:butt;stroke-linejoin:miter;stroke-miterlimit:4;stroke-dasharray:none;stroke-opacity:1"
       d="M 87.641631,218.74731 34.45119,216.27186 c 8.402666,5.80259 9.010305,9.30919 14.354079,16.46588 l -27.076291,-2.69841 c 8.393004,8.46276 7.831986,10.00143 11.747978,15.00214 l -25.3781706,3.77642 c 0,0 13.4003026,6.69191 16.8977836,12.97002 3.132369,5.62273 2.106622,19.33115 2.106622,19.33115 l 14.060736,-18.87073 c 1.422901,6.75295 3.415004,11.40508 4.167075,17.1736 l 12.83834,-26.94903 c 2.404637,7.81565 5.0029,15.12831 6.396981,24.28926 z"
       id="path815"
       inkscape:connector-curvature="0"
       sodipodi:nodetypes="ccccccacccccc" />
    <path
       sodipodi:nodetypes="ccccccacccccc"
       inkscape:connector-curvature="0"
       id="path817"
       d="m 91.127318,216.4905 -53.325734,-2.407 c 8.424039,5.64212 9.033223,9.05175 14.39059,16.01051 l -27.145161,-2.62378 c 8.414352,8.22872 7.851907,9.72484 11.77786,14.58726 l -25.442722,3.67198 c 0,0 13.434388,6.50685 16.940764,12.61134 3.140337,5.46724 2.111981,18.79655 2.111981,18.79655 l 14.0965,-18.34887 c 1.42652,6.5662 3.42369,11.08968 4.177674,16.69867 L 61.580064,249.2834 c 2.410754,7.59951 5.015626,14.70994 6.413253,23.61755 z"
       style="fill:#52ebc2;fill-opacity:1;stroke:#000000;stroke-width:2.62725639;stroke-linecap:butt;stroke-linejoin:miter;stroke-miterlimit:4;stroke-dasharray:none;stroke-opacity:1" />
  </g>
</svg>
