<?xml version="1.0" encoding="UTF-8" standalone="no"?>
<svg
   xmlns:dc="http://purl.org/dc/elements/1.1/"
   xmlns:cc="http://creativecommons.org/ns#"
   xmlns:rdf="http://www.w3.org/1999/02/22-rdf-syntax-ns#"
   xmlns:svg="http://www.w3.org/2000/svg"
   xmlns="http://www.w3.org/2000/svg"
   xmlns:xlink="http://www.w3.org/1999/xlink"
   xmlns:sodipodi="http://sodipodi.sourceforge.net/DTD/sodipodi-0.dtd"
   xmlns:inkscape="http://www.inkscape.org/namespaces/inkscape"
   version="1.1"
   preserveAspectRatio="xMidYMid meet"
   viewBox="0 0 100 100"
   width="100"
   height="100"
   id="svg161"
   sodipodi:docname="reviver.svg"
   inkscape:version="0.92.4 (5da689c313, 2019-01-14)">
  <metadata
     id="metadata165">
    <rdf:RDF>
      <cc:Work
         rdf:about="">
        <dc:format>image/svg+xml</dc:format>
        <dc:type
           rdf:resource="http://purl.org/dc/dcmitype/StillImage" />
        <dc:title></dc:title>
      </cc:Work>
    </rdf:RDF>
  </metadata>
  <sodipodi:namedview
     pagecolor="#ffffff"
     bordercolor="#666666"
     borderopacity="1"
     objecttolerance="10"
     gridtolerance="10"
     guidetolerance="10"
     inkscape:pageopacity="0"
     inkscape:pageshadow="2"
     inkscape:window-width="1920"
     inkscape:window-height="1017"
     id="namedview163"
     showgrid="false"
     inkscape:zoom="5.6568543"
     inkscape:cx="35.473649"
     inkscape:cy="37.142835"
     inkscape:window-x="1016"
     inkscape:window-y="-8"
     inkscape:window-maximized="1"
     inkscape:current-layer="svg161" />
  <defs
     id="defs9">
    <linearGradient
       inkscape:collect="always"
       id="linearGradient1321">
      <stop
         style="stop-color:#66c636;stop-opacity:1"
         offset="0"
         id="stop1317" />
      <stop
         style="stop-color:#319c3a;stop-opacity:1"
         offset="1"
         id="stop1319" />
    </linearGradient>
    <path
       d="M86.26 10C88.33 10 90 11.68 90 13.74C90 29 90 70.93 90 86.16C90 88.28 88.28 90 86.16 90C70.93 90 29.33 90 14.16 90C11.86 90 10 88.15 10 85.85C10 70.68 10 29.24 10 14.05C10 11.82 11.82 10 14.05 10C29.24 10 71.01 10 86.26 10Z"
       id="e48fJMRosU" />
    <path
       d="M14.41 13.93L51.75 13.93L51.75 35.66L14.41 35.66L14.41 13.93Z"
       id="cUXamxjQO" />
    <path
       d="M55.68 13.93L86.04 13.93L86.04 35.66L55.68 35.66L55.68 13.93Z"
       id="adFD4Se0" />
    <path
       d="M14.27 39.72L40.1 39.72L40.1 61.45L14.27 61.45L14.27 39.72Z"
       id="ewh1hQOX" />
    <path
       d="M14.27 64.35L66.98 64.35L66.98 86.08L14.27 86.08L14.27 64.35Z"
       id="a38Yvefk3A" />
    <path
       d="M43.98 39.06L86.04 39.06L86.04 60.79L43.98 60.79L43.98 39.06Z"
       id="c1W7bi4Ogg" />
    <path
       d="M70.79 64.35L86.18 64.35L86.18 86.08L70.79 86.08L70.79 64.35Z"
       id="dxN1Gg6ZA" />
    <linearGradient
       inkscape:collect="always"
       xlink:href="#linearGradient1321"
       id="linearGradient1323"
       x1="49.861439"
       y1="83.234016"
       x2="49.699368"
       y2="12.169787"
       gradientUnits="userSpaceOnUse" />
  </defs>
  <path
     style="opacity:1;fill:url(#linearGradient1323);fill-opacity:1;fill-rule:nonzero;stroke:#0d571a;stroke-width:3.37127566;stroke-linecap:butt;stroke-linejoin:miter;stroke-miterlimit:4;stroke-dasharray:none;stroke-opacity:1;paint-order:normal"
     d="M 50.052382,7.7478249 C 35.265347,7.7487917 24.594898,20.207754 23.278864,34.523468 c -1.389779,15.117887 -1.674624,54.948636 7.824961,36.042828 8.032582,-17.506907 -1.767748,19.107066 4.738733,13.799886 10.470725,-8.540723 12.685496,19.270398 16.064111,2.266351 1.619507,-8.150721 2.134158,-12.614683 5.148672,-8.857246 2.123785,2.647192 2.677246,15.035881 5.560735,8.033118 2.883492,-7.002763 5.355318,4.737922 7.208992,-4.118513 C 73.626271,67.170649 76.758317,48.773655 76.828026,34.523468 76.897735,20.273282 64.840247,7.7476183 50.052382,7.7478249 Z M 41.492503,23.26181 c 3.434762,0 6.219188,2.784426 6.219188,6.219188 0,3.434762 -2.784426,9.295126 -6.219188,9.295126 -3.434763,0 -6.219188,-5.860364 -6.219188,-9.295126 0,-3.434762 2.784425,-6.219188 6.219188,-6.219188 z m 19.237427,0.754035 c 3.159254,-3.96e-4 5.720434,2.560784 5.720038,5.720038 3.96e-4,3.159254 -2.560784,8.508004 -5.720038,8.507608 -3.159254,3.96e-4 -5.720435,-5.348354 -5.720039,-8.507608 -3.96e-4,-3.159254 2.560785,-5.720434 5.720039,-5.720038 z m -0.112574,24.362733 c 0.371656,-0.0089 0.72775,-0.0074 1.068392,0.0064 1.635078,0.06617 2.891493,0.427746 3.555642,1.406114 6.499365,9.574314 -2.289448,11.45825 -3.988947,8.655461 -1.400304,-2.309359 -7.142937,3.582299 -10.435406,1.665247 -5.072959,-2.953746 -7.458777,-5.949964 -9.821559,-1.576037 -1.053586,1.950374 -14.808053,-5.910947 -3.719194,-9.384007 5.497364,-1.721789 8.594397,0.709573 14.050522,-0.127443 3.373256,-0.03482 6.688958,-0.583181 9.29055,-0.645708 z"
     id="path1005"
     inkscape:connector-curvature="0"
     sodipodi:nodetypes="cscsssscscsssssccccccssssssccc" />
  <path
     style="opacity:1;fill:#5aaf30;fill-opacity:1;fill-rule:nonzero;stroke:#0d571a;stroke-width:2.28376722;stroke-linecap:butt;stroke-linejoin:miter;stroke-miterlimit:4;stroke-dasharray:none;stroke-opacity:1;paint-order:normal"
     d="m 87.850357,79.454246 c 0,2.813626 -2.280895,9.308616 -5.094521,9.308616 -2.813627,0 -7.269539,-5.815297 -7.269539,-8.628923 0,-2.813628 2.280895,-5.094523 5.094522,-5.094523 2.813628,0 7.269538,1.601203 7.269538,4.41483 z"
     id="path1033"
     inkscape:connector-curvature="0"
     sodipodi:nodetypes="sssss" />
  <path
     style="opacity:1;fill:#5aaf30;fill-opacity:1;fill-rule:nonzero;stroke:#0d571a;stroke-width:2.28376722;stroke-linecap:butt;stroke-linejoin:miter;stroke-miterlimit:4;stroke-dasharray:none;stroke-opacity:1;paint-order:normal"
     d="m 27.038616,84.862122 c 0,2.17658 -3.123851,6.659816 -5.300431,6.659816 -2.176579,0 -2.581659,-4.483236 -2.581659,-6.659816 0,-2.176579 1.764465,-3.941046 3.941045,-3.941046 2.176579,0 3.941045,1.764467 3.941045,3.941046 z"
     id="path1037"
     inkscape:connector-curvature="0"
     sodipodi:nodetypes="sssss" />
</svg>
