<?xml version="1.0" encoding="UTF-8" standalone="no"?>
<svg
   xmlns:dc="http://purl.org/dc/elements/1.1/"
   xmlns:cc="http://creativecommons.org/ns#"
   xmlns:rdf="http://www.w3.org/1999/02/22-rdf-syntax-ns#"
   xmlns:svg="http://www.w3.org/2000/svg"
   xmlns="http://www.w3.org/2000/svg"
   xmlns:xlink="http://www.w3.org/1999/xlink"
   xmlns:sodipodi="http://sodipodi.sourceforge.net/DTD/sodipodi-0.dtd"
   xmlns:inkscape="http://www.inkscape.org/namespaces/inkscape"
   width="378"
   height="378"
   viewBox="0 0 100 100"
   version="1.1"
   id="svg8"
   sodipodi:docname="monster.svg"
   inkscape:version="0.92.4 (5da689c313, 2019-01-14)">
  <metadata
     id="metadata14">
    <rdf:RDF>
      <cc:Work
         rdf:about="">
        <dc:format>image/svg+xml</dc:format>
        <dc:type
           rdf:resource="http://purl.org/dc/dcmitype/StillImage" />
        <dc:title />
      </cc:Work>
    </rdf:RDF>
  </metadata>
  <defs
     id="defs12">
    <linearGradient
       inkscape:collect="always"
       id="linearGradient1040">
      <stop
         style="stop-color:#0e1118;stop-opacity:0.39705881"
         offset="0"
         id="stop1036" />
      <stop
         style="stop-color:#0e1118;stop-opacity:0.0245098"
         offset="1"
         id="stop1038" />
    </linearGradient>
    <linearGradient
       inkscape:collect="always"
       xlink:href="#linearGradient1040"
       id="linearGradient1050"
       gradientUnits="userSpaceOnUse"
       x1="73.24633"
       y1="37.809078"
       x2="73.037277"
       y2="18.980824"
       gradientTransform="matrix(-1,0,0,1,99.947316,0)" />
    <linearGradient
       inkscape:collect="always"
       xlink:href="#linearGradient1040"
       id="linearGradient852"
       gradientUnits="userSpaceOnUse"
       gradientTransform="translate(0.22705144)"
       x1="73.24633"
       y1="37.809078"
       x2="73.037277"
       y2="18.980824" />
  </defs>
  <sodipodi:namedview
     pagecolor="#ffffff"
     bordercolor="#666666"
     borderopacity="1"
     objecttolerance="10"
     gridtolerance="10"
     guidetolerance="10"
     inkscape:pageopacity="0"
     inkscape:pageshadow="2"
     inkscape:window-width="1920"
     inkscape:window-height="1017"
     id="namedview10"
     showgrid="false"
     inkscape:zoom="1.748036"
     inkscape:cx="164.54946"
     inkscape:cy="215.83311"
     inkscape:window-x="1016"
     inkscape:window-y="-8"
     inkscape:window-maximized="1"
     inkscape:current-layer="svg8" />
  <circle
     id="circle2"
     r="25"
     cy="50"
     cx="50"
     style="fill:#ff5648;fill-opacity:1" />
  <path
     style="fill:#0e1118;fill-opacity:0.17156863;stroke:none;stroke-width:3.77999997"
     d="m 189,94.5 c -52.19091,0 -94.5,42.30909 -94.5,94.5 0,52.19091 42.30909,94.5 94.5,94.5 52.19091,0 94.5,-42.30909 94.5,-94.5 0,-52.19091 -42.30909,-94.5 -94.5,-94.5 z m 16.28365,10.02741 c 36.86869,7.8e-4 66.75617,29.88914 66.75586,66.75782 3.1e-4,36.86869 -29.88717,66.75704 -66.75586,66.75781 -36.86944,3e-4 -66.75811,-29.88836 -66.75781,-66.75781 -3e-4,-36.86945 29.88837,-66.75812 66.75781,-66.75782 z"
     transform="scale(0.26455026)"
     id="circle4543"
     inkscape:connector-curvature="0"
     sodipodi:nodetypes="sssssccccc" />
  <circle
     cx="50"
     cy="50"
     r="25"
     id="circle4539"
     style="stroke:#000000;stroke-opacity:1;fill:none;stroke-width:2.61375661;stroke-miterlimit:4;stroke-dasharray:none" />
  <path
     sodipodi:nodetypes="cccc"
     inkscape:connector-curvature="0"
     id="path1044"
     d="M 28.063054,37.960422 C 17.560933,33.631962 21.095819,18.88577 21.095819,18.88577 c 0,0 5.043963,11.9683 11.563683,12.841153 -2.635039,2.171417 -3.557316,3.42372 -4.596448,6.233499 z"
     style="fill:#ff5648;fill-opacity:1;stroke:none;stroke-width:1.66666663;stroke-linecap:butt;stroke-linejoin:round;stroke-miterlimit:4;stroke-dasharray:none;stroke-opacity:1" />
  <path
     style="fill:url(#linearGradient1050);fill-opacity:1;stroke:none;stroke-width:1.66666663;stroke-linecap:butt;stroke-linejoin:round;stroke-miterlimit:4;stroke-dasharray:none;stroke-opacity:1"
     d="M 28.063054,37.960422 C 17.560933,33.631962 21.095819,18.88577 21.095819,18.88577 c 0,0 5.043963,11.9683 11.563683,12.841153 -2.635039,2.171417 -3.557316,3.42372 -4.596448,6.233499 z"
     id="path1046"
     inkscape:connector-curvature="0"
     sodipodi:nodetypes="cccc" />
  <path
     style="fill:none;fill-opacity:0.90952376;stroke:#000000;stroke-width:1.66666663;stroke-linecap:butt;stroke-linejoin:round;stroke-miterlimit:4;stroke-dasharray:none;stroke-opacity:1"
     d="M 28.063054,37.960422 C 17.560933,33.631962 21.095819,18.88577 21.095819,18.88577 c 0,0 5.043963,11.9683 11.563683,12.841153 -2.635039,2.171417 -3.557316,3.42372 -4.596448,6.233499 z"
     id="path1048"
     inkscape:connector-curvature="0"
     sodipodi:nodetypes="cccc" />
  <path
     style="fill:#ff5648;fill-opacity:1;stroke:none;stroke-width:1.66666663;stroke-linecap:butt;stroke-linejoin:round;stroke-miterlimit:4;stroke-dasharray:none;stroke-opacity:1"
     d="m 72.111313,37.960422 c 10.502121,-4.32846 6.967235,-19.074652 6.967235,-19.074652 0,0 -5.043963,11.9683 -11.563683,12.841153 2.635039,2.171417 3.557316,3.42372 4.596448,6.233499 z"
     id="path846"
     inkscape:connector-curvature="0"
     sodipodi:nodetypes="cccc" />
  <path
     sodipodi:nodetypes="cccc"
     inkscape:connector-curvature="0"
     id="path848"
     d="m 72.111313,37.960422 c 10.502121,-4.32846 6.967235,-19.074652 6.967235,-19.074652 0,0 -5.043963,11.9683 -11.563683,12.841153 2.635039,2.171417 3.557316,3.42372 4.596448,6.233499 z"
     style="fill:url(#linearGradient852);fill-opacity:1;stroke:none;stroke-width:1.66666663;stroke-linecap:butt;stroke-linejoin:round;stroke-miterlimit:4;stroke-dasharray:none;stroke-opacity:1" />
  <path
     sodipodi:nodetypes="cccc"
     inkscape:connector-curvature="0"
     id="path850"
     d="m 72.111313,37.960422 c 10.502121,-4.32846 6.967235,-19.074652 6.967235,-19.074652 0,0 -5.043963,11.9683 -11.563683,12.841153 2.635039,2.171417 3.557316,3.42372 4.596448,6.233499 z"
     style="fill:none;fill-opacity:0.90952376;stroke:#000000;stroke-width:1.66666663;stroke-linecap:butt;stroke-linejoin:round;stroke-miterlimit:4;stroke-dasharray:none;stroke-opacity:1" />
</svg>
