<?xml version="1.0" encoding="UTF-8" standalone="no"?>
<svg
   xmlns:dc="http://purl.org/dc/elements/1.1/"
   xmlns:cc="http://creativecommons.org/ns#"
   xmlns:rdf="http://www.w3.org/1999/02/22-rdf-syntax-ns#"
   xmlns:svg="http://www.w3.org/2000/svg"
   xmlns="http://www.w3.org/2000/svg"
   xmlns:sodipodi="http://sodipodi.sourceforge.net/DTD/sodipodi-0.dtd"
   xmlns:inkscape="http://www.inkscape.org/namespaces/inkscape"
   width="378"
   height="378"
   viewBox="0 0 100 100"
   version="1.1"
   id="svg8"
   sodipodi:docname="stutter.svg"
   inkscape:version="0.92.4 (5da689c313, 2019-01-14)">
  <metadata
     id="metadata14">
    <rdf:RDF>
      <cc:Work
         rdf:about="">
        <dc:format>image/svg+xml</dc:format>
        <dc:type
           rdf:resource="http://purl.org/dc/dcmitype/StillImage" />
        <dc:title />
      </cc:Work>
    </rdf:RDF>
  </metadata>
  <defs
     id="defs12">
    <inkscape:perspective
       sodipodi:type="inkscape:persp3d"
       inkscape:vp_x="0 : 50 : 1"
       inkscape:vp_y="0 : 1000 : 0"
       inkscape:vp_z="100 : 50 : 1"
       inkscape:persp3d-origin="50 : 33.333333 : 1"
       id="perspective858" />
  </defs>
  <sodipodi:namedview
     pagecolor="#ffffff"
     bordercolor="#666666"
     borderopacity="1"
     objecttolerance="10"
     gridtolerance="10"
     guidetolerance="10"
     inkscape:pageopacity="0"
     inkscape:pageshadow="2"
     inkscape:window-width="1920"
     inkscape:window-height="1017"
     id="namedview10"
     showgrid="false"
     inkscape:zoom="1.748036"
     inkscape:cx="42.070507"
     inkscape:cy="191.75673"
     inkscape:window-x="1016"
     inkscape:window-y="-8"
     inkscape:window-maximized="1"
     inkscape:current-layer="svg8" />
  <circle
     id="circle2"
     r="25"
     cy="50"
     cx="50"
     style="fill:#4ac6c6;fill-opacity:1;opacity:1;stroke:none;stroke-opacity:1" />
  <path
     style="opacity:1;fill:#2e9393;fill-opacity:1;fill-rule:nonzero;stroke:none;stroke-width:1.59896696;stroke-linecap:butt;stroke-linejoin:round;stroke-miterlimit:4;stroke-dasharray:none;stroke-opacity:1;paint-order:normal"
     d="m 46.073754,32.604557 c -4.565304,1.030175 1.389897,3.968327 -2.633621,6.358839 -4.02352,2.390509 -3.756032,-4.244806 -6.843918,-0.72796 -3.087885,3.516848 3.45685,2.393357 1.606863,6.692286 -1.849989,4.298931 -5.53367,-1.226236 -5.964671,3.433966 -0.431002,4.660203 4.203449,-0.09566 5.233623,4.469645 1.030174,4.565301 -5.197374,2.260532 -2.806863,6.284052 2.390511,4.023518 3.344223,-2.548262 6.861069,0.539624 3.516847,3.087884 -2.875943,4.88415 1.422986,6.734138 4.298931,1.849989 1.207727,-4.027575 5.86793,-3.596571 4.660202,0.431 0.543793,5.641842 5.109095,4.611668 4.565303,-1.030175 -1.389897,-3.968329 2.633621,-6.358841 4.02352,-2.390509 3.756032,4.244808 6.843916,0.72796 3.087886,-3.516846 -3.456849,-2.393357 -1.606861,-6.692287 1.849989,-4.298927 5.533669,1.226237 5.96467,-3.433964 0.431,-4.660205 -4.203449,0.09566 -5.233623,-4.469643 -1.030177,-4.565303 5.197374,-2.260536 2.806862,-6.284055 -2.39051,-4.023519 -3.344222,2.548262 -6.861069,-0.539623 -3.516846,-3.087885 2.875944,-4.883808 -1.422985,-6.733797 -4.29893,-1.849988 -0.746326,4.244114 -5.867929,3.596229 -5.121603,-0.647884 -0.398967,-5.658652 -5.109095,-4.611666 z m 3.926245,9.619905 c 4.296857,-5.2e-5 7.780162,3.483253 7.780112,7.78011 -1.37e-4,4.296724 -3.483388,7.779819 -7.780112,7.779766 -4.296723,5.1e-5 -7.779971,-3.483042 -7.780109,-7.779766 -5.1e-5,-4.296857 3.483252,-7.780161 7.780109,-7.78011 z"
     id="path841"
     inkscape:connector-curvature="0"
     sodipodi:nodetypes="csssssssssssssssssszcccccc" />
  <path
     style="fill:#0e1118;fill-opacity:0.17254902;stroke:none;stroke-width:3.77999997;opacity:1"
     d="m 189,94.5 c -52.19091,0 -94.5,42.30909 -94.5,94.5 0,52.19091 42.30909,94.5 94.5,94.5 52.19091,0 94.5,-42.30909 94.5,-94.5 0,-52.19091 -42.30909,-94.5 -94.5,-94.5 z m 16.28365,10.02741 c 36.86869,7.8e-4 66.75617,29.88914 66.75586,66.75782 3.1e-4,36.86869 -29.88717,66.75704 -66.75586,66.75781 -36.86944,3e-4 -66.75811,-29.88836 -66.75781,-66.75781 -3e-4,-36.86945 29.88837,-66.75812 66.75781,-66.75782 z"
     id="circle4543"
     inkscape:connector-curvature="0"
     sodipodi:nodetypes="sssssccccc"
     transform="scale(0.26455026)" />
  <circle
     cx="50"
     cy="50"
     r="25"
     id="circle4539"
     style="stroke:#000000;stroke-opacity:1;fill:none;stroke-width:2.61375661;stroke-miterlimit:4;stroke-dasharray:none;fill-opacity:1" />
</svg>
