<?xml version="1.0" encoding="UTF-8" standalone="no"?>
<svg
   xmlns:dc="http://purl.org/dc/elements/1.1/"
   xmlns:cc="http://creativecommons.org/ns#"
   xmlns:rdf="http://www.w3.org/1999/02/22-rdf-syntax-ns#"
   xmlns:svg="http://www.w3.org/2000/svg"
   xmlns="http://www.w3.org/2000/svg"
   xmlns:sodipodi="http://sodipodi.sourceforge.net/DTD/sodipodi-0.dtd"
   xmlns:inkscape="http://www.inkscape.org/namespaces/inkscape"
   width="378"
   height="378"
   viewBox="0 0 100 100"
   version="1.1"
   id="svg8"
   sodipodi:docname="taker.svg"
   inkscape:version="0.92.4 (5da689c313, 2019-01-14)">
  <metadata
     id="metadata14">
    <rdf:RDF>
      <cc:Work
         rdf:about="">
        <dc:format>image/svg+xml</dc:format>
        <dc:type
           rdf:resource="http://purl.org/dc/dcmitype/StillImage" />
        <dc:title />
      </cc:Work>
    </rdf:RDF>
  </metadata>
  <defs
     id="defs12" />
  <sodipodi:namedview
     pagecolor="#ffffff"
     bordercolor="#666666"
     borderopacity="1"
     objecttolerance="10"
     gridtolerance="10"
     guidetolerance="10"
     inkscape:pageopacity="0"
     inkscape:pageshadow="2"
     inkscape:window-width="1920"
     inkscape:window-height="1017"
     id="namedview10"
     showgrid="false"
     inkscape:zoom="2"
     inkscape:cx="130.37419"
     inkscape:cy="147.64877"
     inkscape:window-x="1016"
     inkscape:window-y="-8"
     inkscape:window-maximized="1"
     inkscape:current-layer="svg8" />
  <circle
     id="circle2"
     r="25"
     cy="50"
     cx="50"
     style="fill:#9464a9;fill-opacity:1;opacity:0.98" />
  <path
     sodipodi:nodetypes="ccccc"
     inkscape:connector-curvature="0"
     id="path1359"
     d="m 64.484356,50.016413 c -6.865584,0.604895 -13.33698,6.550694 -14.481089,15.152775 -1.144106,-8.611156 -7.628336,-14.518454 -14.487504,-15.161849 6.872002,-0.643392 13.343398,-6.58919 14.460283,-15.17656 1.116886,8.625869 7.642726,14.580741 14.50831,15.185634 z"
     style="fill:#da62af;fill-opacity:1;stroke:#dd6bb5;stroke-width:3.31658543;stroke-linecap:round;stroke-linejoin:round;stroke-miterlimit:4;stroke-dasharray:none;stroke-opacity:1" />
  <path
     style="fill:#0e1118;fill-opacity:0.17156863;stroke:none;stroke-width:3.77999997"
     d="m 189,94.5 c -52.19091,0 -94.5,42.30909 -94.5,94.5 0,52.19091 42.30909,94.5 94.5,94.5 52.19091,0 94.5,-42.30909 94.5,-94.5 0,-52.19091 -42.30909,-94.5 -94.5,-94.5 z m 16.28365,10.02741 c 36.86869,7.8e-4 66.75617,29.88914 66.75586,66.75782 3.1e-4,36.86869 -29.88717,66.75704 -66.75586,66.75781 -36.86944,3e-4 -66.75811,-29.88836 -66.75781,-66.75781 -3e-4,-36.86945 29.88837,-66.75812 66.75781,-66.75782 z"
     transform="scale(0.26455026)"
     id="circle4543"
     inkscape:connector-curvature="0"
     sodipodi:nodetypes="sssssccccc" />
  <circle
     cx="50"
     cy="50"
     r="25"
     id="circle4539"
     style="stroke:#000000;stroke-opacity:1;fill:none;stroke-width:2.61375661;stroke-miterlimit:4;stroke-dasharray:none" />
</svg>
