<?xml version="1.0" encoding="UTF-8" standalone="no"?>
<!DOCTYPE svg PUBLIC "-//W3C//DTD SVG 1.1//EN" "http://www.w3.org/Graphics/SVG/1.1/DTD/svg11.dtd">
<svg version="1.1" xmlns="http://www.w3.org/2000/svg" xmlns:xlink="http://www.w3.org/1999/xlink" preserveAspectRatio="xMidYMid meet" viewBox="0 0 100 100" width="100" height="100">
  <defs>
    <path d="M86.26 10C88.33 10 90 11.68 90 13.74C90 29 90 70.93 90 86.16C90 88.28 88.28 90 86.16 90C70.93 90 29.33 90 14.16 90C11.86 90 10 88.15 10 85.85C10 70.68 10 29.24 10 14.05C10 11.82 11.82 10 14.05 10C29.24 10 71.01 10 86.26 10Z" id="e48fJMRosU"></path>
    <path d="M14.41 13.93L51.75 13.93L51.75 35.66L14.41 35.66L14.41 13.93Z" id="cUXamxjQO"></path>
    <path d="M55.68 13.93L86.04 13.93L86.04 35.66L55.68 35.66L55.68 13.93Z" id="adFD4Se0"></path>
    <path d="M14.27 39.72L40.1 39.72L40.1 61.45L14.27 61.45L14.27 39.72Z" id="ewh1hQOX"></path>
    <path d="M14.27 64.35L66.98 64.35L66.98 86.08L14.27 86.08L14.27 64.35Z" id="a38Yvefk3A"></path>
    <path d="M43.98 39.06L86.04 39.06L86.04 60.79L43.98 60.79L43.98 39.06Z" id="c1W7bi4Ogg"></path>
    <path d="M70.79 64.35L86.18 64.35L86.18 86.08L70.79 86.08L70.79 64.35Z" id="dxN1Gg6ZA"></path>
  </defs>
  <g>
    <g>
      <use xlink:href="#e48fJMRosU" opacity="1" fill="#636363" fill-opacity="1"></use>
    </g>
    <g>
      <g>
        <filter id="shadow5129261" x="5.41" y="4.93" width="56.35" height="40.73" filterUnits="userSpaceOnUse" primitiveUnits="userSpaceOnUse">
          <feFlood></feFlood>
          <feComposite in2="SourceAlpha" operator="in"></feComposite>
          <feGaussianBlur stdDeviation="1"></feGaussianBlur>
          <feOffset dx="1" dy="1" result="afterOffset"></feOffset>
          <feFlood flood-color="#000000" flood-opacity="0.5"></feFlood>
          <feComposite in2="afterOffset" operator="in"></feComposite>
          <feMorphology operator="dilate" radius="1"></feMorphology>
          <feComposite in2="SourceAlpha" operator="out"></feComposite>
        </filter>
        <path d="M14.41 13.93L51.75 13.93L51.75 35.66L14.41 35.66L14.41 13.93Z" id="besnQpufz" fill="white" fill-opacity="1" filter="url(#shadow5129261)"></path>
      </g>
      <use xlink:href="#cUXamxjQO" opacity="1" fill="#8a8a8a" fill-opacity="1"></use>
    </g>
    <g>
      <g>
        <filter id="shadow6393876" x="46.68" y="4.93" width="49.35" height="40.73" filterUnits="userSpaceOnUse" primitiveUnits="userSpaceOnUse">
          <feFlood></feFlood>
          <feComposite in2="SourceAlpha" operator="in"></feComposite>
          <feGaussianBlur stdDeviation="1"></feGaussianBlur>
          <feOffset dx="1" dy="1" result="afterOffset"></feOffset>
          <feFlood flood-color="#000000" flood-opacity="0.5"></feFlood>
          <feComposite in2="afterOffset" operator="in"></feComposite>
          <feMorphology operator="dilate" radius="1"></feMorphology>
          <feComposite in2="SourceAlpha" operator="out"></feComposite>
        </filter>
        <path d="M55.68 13.93L86.04 13.93L86.04 35.66L55.68 35.66L55.68 13.93Z" id="b46XluLHzL" fill="white" fill-opacity="1" filter="url(#shadow6393876)"></path>
      </g>
      <use xlink:href="#adFD4Se0" opacity="1" fill="#8a8a8a" fill-opacity="1"></use>
    </g>
    <g>
      <g>
        <filter id="shadow5100577" x="5.27" y="30.72" width="44.84" height="40.73" filterUnits="userSpaceOnUse" primitiveUnits="userSpaceOnUse">
          <feFlood></feFlood>
          <feComposite in2="SourceAlpha" operator="in"></feComposite>
          <feGaussianBlur stdDeviation="1"></feGaussianBlur>
          <feOffset dx="1" dy="1" result="afterOffset"></feOffset>
          <feFlood flood-color="#000000" flood-opacity="0.5"></feFlood>
          <feComposite in2="afterOffset" operator="in"></feComposite>
          <feMorphology operator="dilate" radius="1"></feMorphology>
          <feComposite in2="SourceAlpha" operator="out"></feComposite>
        </filter>
        <path d="M14.27 39.72L40.1 39.72L40.1 61.45L14.27 61.45L14.27 39.72Z" id="cpVkuJcwQ" fill="white" fill-opacity="1" filter="url(#shadow5100577)"></path>
      </g>
      <use xlink:href="#ewh1hQOX" opacity="1" fill="#8a8a8a" fill-opacity="1"></use>
    </g>
    <g>
      <g>
        <filter id="shadow4931872" x="5.27" y="55.35" width="71.71" height="40.73" filterUnits="userSpaceOnUse" primitiveUnits="userSpaceOnUse">
          <feFlood></feFlood>
          <feComposite in2="SourceAlpha" operator="in"></feComposite>
          <feGaussianBlur stdDeviation="1"></feGaussianBlur>
          <feOffset dx="1" dy="1" result="afterOffset"></feOffset>
          <feFlood flood-color="#000000" flood-opacity="0.5"></feFlood>
          <feComposite in2="afterOffset" operator="in"></feComposite>
          <feMorphology operator="dilate" radius="1"></feMorphology>
          <feComposite in2="SourceAlpha" operator="out"></feComposite>
        </filter>
        <path d="M14.27 64.35L66.98 64.35L66.98 86.08L14.27 86.08L14.27 64.35Z" id="bDX9mw3f1" fill="white" fill-opacity="1" filter="url(#shadow4931872)"></path>
      </g>
      <use xlink:href="#a38Yvefk3A" opacity="1" fill="#8a8a8a" fill-opacity="1"></use>
    </g>
    <g>
      <g>
        <filter id="shadow8643131" x="34.98" y="30.06" width="61.05" height="40.73" filterUnits="userSpaceOnUse" primitiveUnits="userSpaceOnUse">
          <feFlood></feFlood>
          <feComposite in2="SourceAlpha" operator="in"></feComposite>
          <feGaussianBlur stdDeviation="1"></feGaussianBlur>
          <feOffset dx="1" dy="1" result="afterOffset"></feOffset>
          <feFlood flood-color="#000000" flood-opacity="0.5"></feFlood>
          <feComposite in2="afterOffset" operator="in"></feComposite>
          <feMorphology operator="dilate" radius="1"></feMorphology>
          <feComposite in2="SourceAlpha" operator="out"></feComposite>
        </filter>
        <path d="M43.98 39.06L86.04 39.06L86.04 60.79L43.98 60.79L43.98 39.06Z" id="e255VQ7eXh" fill="white" fill-opacity="1" filter="url(#shadow8643131)"></path>
      </g>
      <use xlink:href="#c1W7bi4Ogg" opacity="1" fill="#8a8a8a" fill-opacity="1"></use>
    </g>
    <g>
      <g>
        <filter id="shadow8089129" x="61.79" y="55.35" width="34.4" height="40.73" filterUnits="userSpaceOnUse" primitiveUnits="userSpaceOnUse">
          <feFlood></feFlood>
          <feComposite in2="SourceAlpha" operator="in"></feComposite>
          <feGaussianBlur stdDeviation="1"></feGaussianBlur>
          <feOffset dx="1" dy="1" result="afterOffset"></feOffset>
          <feFlood flood-color="#000000" flood-opacity="0.5"></feFlood>
          <feComposite in2="afterOffset" operator="in"></feComposite>
          <feMorphology operator="dilate" radius="1"></feMorphology>
          <feComposite in2="SourceAlpha" operator="out"></feComposite>
        </filter>
        <path d="M70.79 64.35L86.18 64.35L86.18 86.08L70.79 86.08L70.79 64.35Z" id="ixVceJboV" fill="white" fill-opacity="1" filter="url(#shadow8089129)"></path>
      </g>
      <use xlink:href="#dxN1Gg6ZA" opacity="1" fill="#8a8a8a" fill-opacity="1"></use>
    </g>
  </g>
</svg>
